<svg width="500" height="500" viewBox="0 0 500 500" fill="none" xmlns="http://www.w3.org/2000/svg">
<rect width="500" height="500" fill="#CD4754"/>
<path d="M263.107 233.176C265.349 230.249 268.688 225.648 271.325 221.979H255.218C253.01 221.979 251.219 220.189 251.219 217.981C251.219 215.772 253.01 213.982 255.218 213.982H287.674V246.808C287.674 248.996 285.9 250.77 283.711 250.77C281.523 250.77 279.749 248.996 279.749 246.808V227.565C272.839 239.13 263.922 249.668 257.826 256.312C254.005 260.478 247.641 260.478 243.82 256.312C232.539 244.015 211.595 218.385 211.595 197.587C211.595 187.088 215.728 177.019 223.085 169.595C230.441 162.171 240.419 158 250.823 158C261.227 158 271.205 162.171 278.562 169.595C281.953 173.017 284.659 177.001 286.591 181.331C286.435 182.908 285.77 184.414 284.664 185.606L284.536 185.743C284.382 185.908 284.218 186.062 284.043 186.203L283.563 186.59C282.238 187.66 280.37 187.742 278.956 186.791L276.592 185.056C275.297 182.741 273.679 180.595 271.766 178.687C266.317 173.25 258.926 170.196 251.219 170.196C243.513 170.196 236.122 173.25 230.672 178.687C225.223 184.124 223.482 191.498 223.482 199.187C223.482 204.185 226.742 212.559 229.822 218.78C232.416 224.025 235.005 227.363 238.323 231.642C238.9 232.386 239.499 233.159 240.124 233.975C246.331 242.029 256.344 242.203 262.434 234.061C262.657 233.764 262.881 233.469 263.107 233.176Z" fill="white"/>
<path d="M146.099 342.531C141.749 342.531 137.995 341.539 134.84 339.556C131.684 337.572 129.249 334.72 127.536 331.001C125.845 327.259 125 322.773 125 317.543C125 312.269 125.868 307.749 127.604 303.985C129.362 300.198 131.853 297.301 135.076 295.295C138.3 293.288 142.087 292.285 146.437 292.285C149.03 292.285 151.43 292.725 153.639 293.604C155.871 294.483 157.832 295.678 159.523 297.188C161.236 298.698 162.589 300.412 163.58 302.328C164.572 304.244 165.136 306.25 165.271 308.346H157.562C157.246 306.611 156.57 305.01 155.533 303.545C154.519 302.057 153.222 300.863 151.644 299.961C150.067 299.059 148.286 298.608 146.302 298.608C143.665 298.608 141.332 299.262 139.303 300.569C137.274 301.877 135.685 303.917 134.535 306.69C133.408 309.44 132.845 313.001 132.845 317.374C132.845 320.778 133.194 323.675 133.893 326.064C134.614 328.454 135.595 330.381 136.834 331.846C138.074 333.312 139.528 334.382 141.196 335.058C142.864 335.712 144.645 336.039 146.539 336.039C148.41 336.039 150.055 335.712 151.475 335.058C152.896 334.405 154.079 333.559 155.026 332.523C155.995 331.486 156.739 330.37 157.257 329.175C157.798 327.958 158.114 326.786 158.204 325.659L158.441 321.702H147.012V316.495L165.981 316.563V341.855H160.74V334.687C159.884 336.017 158.813 337.279 157.528 338.474C156.243 339.668 154.665 340.649 152.794 341.415C150.923 342.159 148.691 342.531 146.099 342.531Z" fill="white"/>
<path d="M190.613 342.531C187.344 342.531 184.481 341.832 182.024 340.435C179.59 339.015 177.696 336.963 176.344 334.281C175.014 331.598 174.349 328.352 174.349 324.543C174.349 320.868 174.98 317.656 176.242 314.906C177.527 312.156 179.387 310.026 181.821 308.515C184.256 306.983 187.198 306.216 190.646 306.216C193.938 306.216 196.789 306.938 199.201 308.38C201.613 309.8 203.484 311.885 204.814 314.636C206.144 317.363 206.809 320.666 206.809 324.543C206.809 328.082 206.178 331.204 204.915 333.909C203.676 336.614 201.85 338.733 199.438 340.266C197.048 341.776 194.107 342.531 190.613 342.531ZM190.646 336.952C192.63 336.952 194.287 336.434 195.617 335.397C196.969 334.337 197.984 332.861 198.66 330.967C199.336 329.051 199.674 326.842 199.674 324.34C199.674 322.018 199.37 319.91 198.762 318.017C198.175 316.101 197.217 314.579 195.887 313.452C194.557 312.325 192.81 311.761 190.646 311.761C188.618 311.761 186.927 312.28 185.575 313.317C184.222 314.331 183.196 315.785 182.498 317.679C181.821 319.55 181.483 321.77 181.483 324.34C181.483 326.617 181.787 328.713 182.396 330.629C183.005 332.545 183.985 334.078 185.338 335.228C186.69 336.377 188.46 336.952 190.646 336.952Z" fill="white"/>
<path d="M238.909 342.328C236.836 342.328 235.167 342.058 233.905 341.517C232.665 340.976 231.719 340.254 231.065 339.353C230.411 338.428 229.972 337.392 229.746 336.242C229.543 335.07 229.442 333.864 229.442 332.624V291.609H236.576V331.88C236.576 333.503 236.892 334.743 237.523 335.599C238.177 336.456 239.169 336.941 240.499 337.053L242.325 337.121V341.72C241.761 341.9 241.175 342.046 240.566 342.159C239.98 342.272 239.428 342.328 238.909 342.328Z" fill="white"/>
<path d="M263.72 342.531C260.451 342.531 257.588 341.832 255.131 340.435C252.697 339.015 250.803 336.963 249.451 334.281C248.121 331.598 247.456 328.352 247.456 324.543C247.456 320.868 248.087 317.656 249.349 314.906C250.634 312.156 252.494 310.026 254.928 308.515C257.363 306.983 260.304 306.216 263.753 306.216C267.044 306.216 269.896 306.938 272.308 308.38C274.72 309.8 276.591 311.885 277.921 314.636C279.251 317.363 279.916 320.666 279.916 324.543C279.916 328.082 279.285 331.204 278.022 333.909C276.783 336.614 274.957 338.733 272.545 340.266C270.155 341.776 267.214 342.531 263.72 342.531ZM263.753 336.952C265.737 336.952 267.394 336.434 268.724 335.397C270.076 334.337 271.091 332.861 271.767 330.967C272.443 329.051 272.781 326.842 272.781 324.34C272.781 322.018 272.477 319.91 271.868 318.017C271.282 316.101 270.324 314.579 268.994 313.452C267.664 312.325 265.917 311.761 263.753 311.761C261.725 311.761 260.034 312.28 258.681 313.317C257.329 314.331 256.303 315.785 255.604 317.679C254.928 319.55 254.59 321.77 254.59 324.34C254.59 326.617 254.894 328.713 255.503 330.629C256.112 332.545 257.092 334.078 258.445 335.228C259.797 336.377 261.567 336.952 263.753 336.952Z" fill="white"/>
<path d="M301.925 306.216C304.54 306.216 306.861 306.735 308.89 307.772C310.942 308.786 312.598 310.206 313.861 312.032C315.123 313.858 315.889 315.988 316.16 318.423H309.905C309.702 317.273 309.262 316.202 308.586 315.21C307.932 314.219 307.042 313.43 305.915 312.843C304.81 312.235 303.491 311.931 301.959 311.931C299.163 311.931 296.887 312.956 295.128 315.008C293.37 317.059 292.491 320.203 292.491 324.441C292.491 328.318 293.303 331.407 294.926 333.706C296.571 336.005 298.961 337.155 302.094 337.155C303.604 337.155 304.912 336.839 306.016 336.208C307.143 335.577 308.034 334.765 308.687 333.774C309.341 332.782 309.758 331.756 309.938 330.697H316.092C315.844 333.041 315.078 335.104 313.793 336.884C312.531 338.665 310.874 340.052 308.823 341.043C306.794 342.035 304.495 342.531 301.925 342.531C298.746 342.531 295.929 341.844 293.472 340.469C291.015 339.071 289.087 337.031 287.69 334.348C286.315 331.643 285.627 328.364 285.627 324.509C285.627 320.88 286.269 317.69 287.554 314.94C288.839 312.19 290.699 310.048 293.133 308.515C295.591 306.983 298.521 306.216 301.925 306.216Z" fill="white"/>
<path d="M333.553 342.531C331.299 342.531 329.293 342.125 327.535 341.314C325.799 340.502 324.435 339.33 323.443 337.797C322.452 336.264 321.956 334.416 321.956 332.252C321.956 328.375 323.331 325.478 326.081 323.562C328.831 321.646 333.215 320.632 339.234 320.519L344.982 320.35V317.814C344.982 315.808 344.385 314.23 343.19 313.08C341.995 311.931 340.158 311.367 337.679 311.39C335.808 311.39 334.14 311.818 332.674 312.674C331.232 313.531 330.285 314.94 329.834 316.901H323.545C323.68 314.579 324.345 312.629 325.54 311.051C326.757 309.451 328.425 308.245 330.544 307.433C332.663 306.622 335.154 306.216 338.017 306.216C341.195 306.216 343.81 306.656 345.861 307.535C347.913 308.391 349.434 309.654 350.426 311.322C351.44 312.99 351.948 315.019 351.948 317.408V341.855H345.828L345.253 335.43C343.945 338.113 342.288 339.973 340.282 341.01C338.299 342.024 336.056 342.531 333.553 342.531ZM335.819 337.493C336.923 337.493 338.017 337.301 339.099 336.918C340.181 336.512 341.161 335.971 342.04 335.295C342.92 334.596 343.618 333.819 344.137 332.962C344.678 332.106 344.96 331.226 344.982 330.325V324.543L340.248 324.644C337.836 324.667 335.785 324.915 334.094 325.388C332.426 325.861 331.141 326.594 330.24 327.586C329.361 328.578 328.921 329.896 328.921 331.542C328.921 333.413 329.575 334.878 330.882 335.938C332.19 336.975 333.835 337.493 335.819 337.493Z" fill="white"/>
<path d="M371.585 342.328C369.511 342.328 367.843 342.058 366.581 341.517C365.341 340.976 364.394 340.254 363.74 339.353C363.087 338.428 362.647 337.392 362.422 336.242C362.219 335.07 362.117 333.864 362.117 332.624V291.609H369.252V331.88C369.252 333.503 369.567 334.743 370.199 335.599C370.852 336.456 371.844 336.941 373.174 337.053L375 337.121V341.72C374.436 341.9 373.85 342.046 373.242 342.159C372.656 342.272 372.103 342.328 371.585 342.328Z" fill="white"/>
</svg>
